<svg xmlns="http://www.w3.org/2000/svg" width="1600" height="1000" viewBox="0 0 1600 1000" role="img" aria-label="Capture de Contact Mind">
  <defs>
    <linearGradient id="bg" x1="0" y1="0" x2="1" y2="1">
      <stop offset="0" stop-color="#fbf9ff"/>
      <stop offset="0.54" stop-color="#eef5ff"/>
      <stop offset="1" stop-color="#fff7ef"/>
    </linearGradient>
    <filter id="shadow" x="-20%" y="-20%" width="140%" height="150%">
      <feDropShadow dx="0" dy="30" stdDeviation="42" flood-color="#1f2435" flood-opacity="0.17"/>
    </filter>
  </defs>
  <rect width="1600" height="1000" fill="url(#bg)"/>
  <rect x="88" y="72" width="1424" height="856" rx="38" fill="#ffffff" opacity="0.88"/>
  <g font-family="Inter, Helvetica, Arial, sans-serif" fill="#17181b">
    <text x="146" y="146" font-size="30" font-weight="800">Contact Mind</text>
    <text x="1014" y="146" font-size="18" font-weight="650">Cartes</text>
    <text x="1150" y="146" font-size="18" font-weight="650">Relations</text>
    <text x="1328" y="146" font-size="18" font-weight="650">App</text>
    <text x="146" y="348" font-size="78" font-weight="780">Votre réseau</text>
    <text x="146" y="432" font-size="78" font-weight="780">devient visible.</text>
  </g>
  <text x="150" y="518" fill="#707682" font-family="Inter, Helvetica, Arial, sans-serif" font-size="28">Application mobile pour cartographier son carnet de contacts</text>
  <text x="150" y="560" fill="#707682" font-family="Inter, Helvetica, Arial, sans-serif" font-size="28">et organiser les liens de manière visuelle.</text>
  <g filter="url(#shadow)">
    <rect x="842" y="226" width="472" height="594" rx="40" fill="#1e2129"/>
    <circle cx="1078" cy="522" r="70" fill="#ee7c42"/>
    <circle cx="954" cy="394" r="46" fill="#ffffff"/>
    <circle cx="1222" cy="406" r="46" fill="#ffffff"/>
    <circle cx="966" cy="666" r="46" fill="#ffffff"/>
    <circle cx="1212" cy="668" r="46" fill="#ffffff"/>
    <path d="M1010 430 L1040 484 M1166 438 L1120 486 M1012 642 L1040 572 M1168 636 L1120 572" fill="none" stroke="#ffffff" stroke-width="14" stroke-linecap="round" opacity="0.42"/>
    <rect x="910" y="294" width="336" height="36" rx="18" fill="#ffffff" opacity="0.18"/>
    <rect x="944" y="742" width="268" height="38" rx="19" fill="#ffffff" opacity="0.16"/>
  </g>
  <g filter="url(#shadow)" font-family="Inter, Helvetica, Arial, sans-serif">
    <rect x="146" y="682" width="250" height="132" rx="28" fill="#ffffff"/>
    <text x="184" y="738" fill="#737a86" font-size="18">Contacts</text>
    <text x="184" y="790" fill="#17181b" font-size="48" font-weight="760">Map</text>
    <rect x="430" y="682" width="250" height="132" rx="28" fill="#ffffff"/>
    <text x="468" y="738" fill="#737a86" font-size="18">App</text>
    <text x="468" y="790" fill="#17181b" font-size="48" font-weight="760">iOS</text>
  </g>
</svg>
