<svg xmlns="http://www.w3.org/2000/svg" width="1170" height="2532" viewBox="0 0 1170 2532" role="img" aria-label="Interface mobile Contact Mind">
  <defs>
    <linearGradient id="bg" x1="0" y1="0" x2="1" y2="1">
      <stop offset="0" stop-color="#fbf9ff"/>
      <stop offset="0.52" stop-color="#edf5ff"/>
      <stop offset="1" stop-color="#fff5ed"/>
    </linearGradient>
    <filter id="shadow" x="-20%" y="-20%" width="140%" height="150%">
      <feDropShadow dx="0" dy="34" stdDeviation="44" flood-color="#1f2435" flood-opacity="0.18"/>
    </filter>
  </defs>
  <rect width="1170" height="2532" fill="url(#bg)"/>
  <g font-family="Inter, Helvetica, Arial, sans-serif">
    <text x="80" y="172" fill="#17181b" font-size="48" font-weight="780">Contact Mind</text>
    <rect x="888" y="120" width="182" height="72" rx="36" fill="#ffffff" opacity="0.82"/>
    <text x="938" y="166" fill="#17181b" font-size="25" font-weight="720">Map</text>
    <text x="80" y="360" fill="#17181b" font-size="82" font-weight="780">Cartographiez</text>
    <text x="80" y="452" fill="#17181b" font-size="82" font-weight="780">vos relations.</text>
    <text x="84" y="532" fill="#707682" font-size="32">Gardez une vue claire de votre reseau</text>
    <text x="84" y="578" fill="#707682" font-size="32">personnel et professionnel.</text>
  </g>
  <g filter="url(#shadow)">
    <rect x="96" y="726" width="978" height="1180" rx="62" fill="#1f222b"/>
    <circle cx="586" cy="1302" r="132" fill="#ee7c42"/>
    <circle cx="326" cy="1050" r="82" fill="#ffffff"/>
    <circle cx="840" cy="1034" r="82" fill="#ffffff"/>
    <circle cx="332" cy="1584" r="82" fill="#ffffff"/>
    <circle cx="846" cy="1596" r="82" fill="#ffffff"/>
    <path d="M388 1112 L504 1226 M782 1112 L668 1226 M398 1530 L506 1402 M778 1538 L668 1402" fill="none" stroke="#ffffff" stroke-width="24" stroke-linecap="round" opacity="0.36"/>
    <rect x="230" y="820" width="710" height="76" rx="38" fill="#ffffff" opacity="0.14"/>
    <rect x="318" y="1762" width="534" height="74" rx="37" fill="#ffffff" opacity="0.14"/>
  </g>
  <g font-family="Inter, Helvetica, Arial, sans-serif" filter="url(#shadow)">
    <rect x="96" y="2010" width="978" height="230" rx="56" fill="#ffffff"/>
    <text x="156" y="2098" fill="#737a86" font-size="30" font-weight="650">Prochaine action</text>
    <text x="156" y="2178" fill="#17181b" font-size="48" font-weight="780">Reprendre contact</text>
    <rect x="836" y="2072" width="150" height="92" rx="46" fill="#17181b"/>
  </g>
</svg>
