<svg xmlns="http://www.w3.org/2000/svg" width="1600" height="1000" viewBox="0 0 1600 1000" role="img" aria-label="Capture de site institutionnel">
  <defs>
    <linearGradient id="sky" x1="0" y1="0" x2="0" y2="1">
      <stop offset="0" stop-color="#eaf6fb"/>
      <stop offset="0.58" stop-color="#f5f8ef"/>
      <stop offset="1" stop-color="#ffffff"/>
    </linearGradient>
    <linearGradient id="ridge" x1="0" y1="0" x2="1" y2="0">
      <stop offset="0" stop-color="#c9d7d0"/>
      <stop offset="1" stop-color="#8ba79a"/>
    </linearGradient>
    <filter id="shadow" x="-20%" y="-20%" width="140%" height="150%">
      <feDropShadow dx="0" dy="28" stdDeviation="44" flood-color="#233029" flood-opacity="0.17"/>
    </filter>
  </defs>
  <rect width="1600" height="1000" fill="url(#sky)"/>
  <path d="M0 565 C190 430 326 506 504 392 C662 292 814 388 960 314 C1130 228 1292 348 1600 246 L1600 1000 L0 1000 Z" fill="url(#ridge)" opacity="0.48"/>
  <path d="M0 686 C260 590 438 660 640 556 C824 460 976 560 1128 486 C1292 408 1398 492 1600 428 L1600 1000 L0 1000 Z" fill="#ffffff" opacity="0.66"/>
  <g font-family="Inter, Helvetica, Arial, sans-serif" fill="#171a18">
    <text x="120" y="132" font-size="26" font-weight="780">COMMUNE DE L’ORNE</text>
    <text x="968" y="132" font-size="18" font-weight="650">Actualites</text>
    <text x="1114" y="132" font-size="18" font-weight="650">Demarches</text>
    <text x="1270" y="132" font-size="18" font-weight="650">Territoire</text>
    <rect x="1386" y="100" width="110" height="48" rx="24" fill="#171a18"/>
    <text x="1416" y="131" fill="#ffffff" font-size="17" font-weight="700">Contact</text>
    <text x="120" y="364" font-size="86" font-weight="760">Un territoire clair,</text>
    <text x="120" y="456" font-size="86" font-weight="760">simple a comprendre.</text>
  </g>
  <text x="124" y="532" fill="#65706b" font-family="Inter, Helvetica, Arial, sans-serif" font-size="28">Informations publiques, services en ligne et recits locaux</text>
  <text x="124" y="574" fill="#65706b" font-family="Inter, Helvetica, Arial, sans-serif" font-size="28">dans une interface calme et accessible.</text>
  <g filter="url(#shadow)">
    <rect x="976" y="374" width="380" height="310" rx="34" fill="#ffffff" opacity="0.92"/>
    <rect x="1018" y="424" width="148" height="22" rx="11" fill="#ee7c42"/>
    <rect x="1018" y="482" width="260" height="20" rx="10" fill="#2f3834" opacity="0.82"/>
    <rect x="1018" y="528" width="224" height="14" rx="7" fill="#7f8c86" opacity="0.54"/>
    <rect x="1018" y="562" width="276" height="14" rx="7" fill="#7f8c86" opacity="0.38"/>
    <rect x="1018" y="616" width="178" height="42" rx="21" fill="#171a18"/>
    <circle cx="1262" cy="440" r="52" fill="#d9e6df"/>
    <path d="M1230 448 L1252 470 L1300 414" fill="none" stroke="#597c6d" stroke-width="13" stroke-linecap="round" stroke-linejoin="round"/>
  </g>
</svg>
