<svg xmlns="http://www.w3.org/2000/svg" width="1600" height="1000" viewBox="0 0 1600 1000" role="img" aria-label="Capture du site Jul Terrassement">
  <defs>
    <linearGradient id="forest" x1="0" y1="0" x2="1" y2="1">
      <stop offset="0" stop-color="#3c3938"/>
      <stop offset="0.46" stop-color="#74716b"/>
      <stop offset="1" stop-color="#a8aca4"/>
    </linearGradient>
    <linearGradient id="ground" x1="0" y1="0" x2="1" y2="0">
      <stop offset="0" stop-color="#322b26"/>
      <stop offset="0.48" stop-color="#7d715f"/>
      <stop offset="1" stop-color="#4c5148"/>
    </linearGradient>
    <linearGradient id="machineBlue" x1="0" y1="0" x2="1" y2="1">
      <stop offset="0" stop-color="#2e9ad7"/>
      <stop offset="1" stop-color="#0f5684"/>
    </linearGradient>
    <linearGradient id="headRed" x1="0" y1="0" x2="1" y2="1">
      <stop offset="0" stop-color="#d33a38"/>
      <stop offset="1" stop-color="#7a2621"/>
    </linearGradient>
    <filter id="softBlur">
      <feGaussianBlur stdDeviation="16"/>
    </filter>
    <filter id="heroShadow" x="-20%" y="-20%" width="140%" height="150%">
      <feDropShadow dx="0" dy="24" stdDeviation="28" flood-color="#000000" flood-opacity="0.34"/>
    </filter>
  </defs>

  <rect width="1600" height="1000" fill="url(#forest)"/>
  <rect y="646" width="1600" height="354" fill="url(#ground)"/>

  <g opacity="0.55" stroke="#1d211e" stroke-width="6" stroke-linecap="round">
    <path d="M72 680 L112 0"/>
    <path d="M182 706 L236 34"/>
    <path d="M1182 704 L1210 0"/>
    <path d="M1368 698 L1402 0"/>
    <path d="M1514 718 L1542 0"/>
  </g>
  <g opacity="0.38" stroke="#111513" stroke-width="3" stroke-linecap="round">
    <path d="M92 164 C146 126 172 110 218 78"/>
    <path d="M206 288 C152 264 128 244 92 210"/>
    <path d="M1196 210 C1256 182 1290 154 1320 108"/>
    <path d="M1394 172 C1442 146 1474 118 1512 78"/>
    <path d="M1518 342 C1464 318 1430 286 1398 244"/>
  </g>
  <g opacity="0.26">
    <ellipse cx="322" cy="244" rx="330" ry="250" fill="#152019" filter="url(#softBlur)"/>
    <ellipse cx="1326" cy="322" rx="360" ry="292" fill="#d9ded8" filter="url(#softBlur)"/>
  </g>

  <g filter="url(#heroShadow)" transform="translate(292 90)">
    <path d="M424 456 C516 348 608 226 696 128 L750 168 C668 306 596 432 550 574 Z" fill="url(#machineBlue)"/>
    <rect x="452" y="546" width="198" height="154" rx="18" fill="#dadad3"/>
    <rect x="486" y="572" width="104" height="84" rx="10" fill="#1f2d34"/>
    <path d="M318 372 L498 414 L446 518 L252 478 Z" fill="url(#headRed)"/>
    <path d="M192 492 L446 518 L424 570 L150 540 Z" fill="#755540"/>
    <g stroke="#2e241e" stroke-width="7" stroke-linecap="round">
      <path d="M178 536 L154 620"/>
      <path d="M214 538 L194 622"/>
      <path d="M250 540 L234 624"/>
      <path d="M286 542 L274 626"/>
      <path d="M322 544 L316 628"/>
      <path d="M358 546 L360 630"/>
      <path d="M394 548 L404 632"/>
    </g>
    <circle cx="458" cy="728" r="82" fill="#1b1d1e"/>
    <circle cx="458" cy="728" r="38" fill="#bfc4c3"/>
    <circle cx="674" cy="724" r="94" fill="#1b1d1e"/>
    <circle cx="674" cy="724" r="42" fill="#bfc4c3"/>
  </g>

  <rect width="1600" height="1000" fill="#000000" opacity="0.42"/>

  <g fill="#ffffff" font-family="FK Grotesk, Inter, Helvetica, Arial, sans-serif">
    <g transform="translate(270 34)">
      <path d="M0 28 L84 28 L94 0 L20 0 Z" fill="#ffffff"/>
      <path d="M116 28 L200 28 L210 0 L136 0 Z" fill="#ffffff" opacity="0.94"/>
      <text x="2" y="66" font-size="11" letter-spacing="9">TERRASSEMENT</text>
    </g>
    <text x="1008" y="56" font-size="28" font-weight="800">Machiniste</text>
    <rect x="1036" y="74" width="78" height="3" rx="1.5" fill="#ffffff"/>
    <text x="1194" y="56" font-size="28" font-weight="800" opacity="0.62">Concept Art Métal</text>
  </g>

  <g fill="#ffffff" font-family="FK Grotesk, Inter, Helvetica, Arial, sans-serif" text-anchor="middle">
    <text x="800" y="724" font-size="62" font-weight="900" letter-spacing="1.5">JUL TERRASSEMENT</text>
    <text x="800" y="780" font-size="24" font-weight="700">Service de machiniste pour tout terrassement, fouille, aménagement extérieur, enrochement, fauchage, broyage de branches et de souches.</text>
    <rect x="715" y="820" width="170" height="44" rx="22" fill="none" stroke="#ffffff" stroke-width="2"/>
    <text x="800" y="849" font-size="18" font-weight="700">Mes services</text>
    <path d="M784 904 L800 920 L816 904" fill="none" stroke="#ffffff" stroke-width="5" stroke-linecap="round" stroke-linejoin="round"/>
  </g>
</svg>
