<svg xmlns="http://www.w3.org/2000/svg" width="1600" height="1000" viewBox="0 0 1600 1000" role="img" aria-label="Capture du site Jul Terrassement">
  <defs>
    <linearGradient id="bg" x1="0" y1="0" x2="1" y2="1">
      <stop offset="0" stop-color="#f9fbf8"/>
      <stop offset="0.55" stop-color="#eff2ed"/>
      <stop offset="1" stop-color="#fff5e8"/>
    </linearGradient>
    <linearGradient id="earth" x1="0" y1="0" x2="1" y2="1">
      <stop offset="0" stop-color="#c9b49b"/>
      <stop offset="1" stop-color="#8a6d4f"/>
    </linearGradient>
    <filter id="shadow" x="-20%" y="-20%" width="140%" height="150%">
      <feDropShadow dx="0" dy="30" stdDeviation="42" flood-color="#2d281f" flood-opacity="0.15"/>
    </filter>
  </defs>
  <rect width="1600" height="1000" fill="url(#bg)"/>
  <rect x="88" y="72" width="1424" height="856" rx="38" fill="#ffffff" opacity="0.88"/>
  <g font-family="Inter, Helvetica, Arial, sans-serif" fill="#161815">
    <text x="146" y="146" font-size="30" font-weight="800">Jul Terrassement</text>
    <text x="988" y="146" font-size="18" font-weight="650">Services</text>
    <text x="1134" y="146" font-size="18" font-weight="650">Réalisations</text>
    <text x="1328" y="146" font-size="18" font-weight="650">Contact</text>
    <text x="146" y="348" font-size="78" font-weight="780">Un service clair</text>
    <text x="146" y="432" font-size="78" font-weight="780">avant chantier.</text>
  </g>
  <text x="150" y="518" fill="#6f746d" font-family="Inter, Helvetica, Arial, sans-serif" font-size="28">Vitrine digitale pour présenter les prestations, les moyens</text>
  <text x="150" y="560" fill="#6f746d" font-family="Inter, Helvetica, Arial, sans-serif" font-size="28">techniques et les demandes de contact qualifiées.</text>
  <g filter="url(#shadow)">
    <rect x="790" y="254" width="546" height="536" rx="38" fill="url(#earth)"/>
    <path d="M826 646 C946 558 1058 678 1172 526 C1234 444 1278 496 1312 454" fill="none" stroke="#ffffff" stroke-width="22" stroke-linecap="round" opacity="0.74"/>
    <rect x="884" y="340" width="260" height="112" rx="26" fill="#171917"/>
    <rect x="924" y="388" width="166" height="16" rx="8" fill="#ffffff" opacity="0.74"/>
    <rect x="884" y="512" width="372" height="166" rx="30" fill="#ffffff" opacity="0.9"/>
    <rect x="928" y="568" width="204" height="18" rx="9" fill="#171917" opacity="0.82"/>
    <rect x="928" y="618" width="252" height="14" rx="7" fill="#171917" opacity="0.36"/>
  </g>
  <g filter="url(#shadow)" font-family="Inter, Helvetica, Arial, sans-serif">
    <rect x="146" y="682" width="250" height="132" rx="28" fill="#ffffff"/>
    <text x="184" y="738" fill="#777c75" font-size="18">Demandes</text>
    <text x="184" y="790" fill="#151713" font-size="48" font-weight="760">Form</text>
    <rect x="430" y="682" width="250" height="132" rx="28" fill="#ffffff"/>
    <text x="468" y="738" fill="#777c75" font-size="18">Services</text>
    <text x="468" y="790" fill="#151713" font-size="48" font-weight="760">SEO</text>
  </g>
</svg>
