<svg xmlns="http://www.w3.org/2000/svg" width="1600" height="1000" viewBox="0 0 1600 1000" role="img" aria-label="Capture de la carte La Gouttière">
  <defs>
    <linearGradient id="darkBg" x1="0" y1="0" x2="1" y2="1">
      <stop offset="0" stop-color="#080303"/>
      <stop offset="0.58" stop-color="#070202"/>
      <stop offset="1" stop-color="#161111"/>
    </linearGradient>
    <linearGradient id="snackPhoto" x1="0" y1="0" x2="1" y2="1">
      <stop offset="0" stop-color="#a67a52"/>
      <stop offset="0.45" stop-color="#523324"/>
      <stop offset="1" stop-color="#140d0b"/>
    </linearGradient>
    <linearGradient id="winePhoto" x1="0" y1="0" x2="1" y2="1">
      <stop offset="0" stop-color="#80351e"/>
      <stop offset="0.5" stop-color="#b46835"/>
      <stop offset="1" stop-color="#170b09"/>
    </linearGradient>
    <linearGradient id="beerPhoto" x1="0" y1="0" x2="1" y2="1">
      <stop offset="0" stop-color="#c17822"/>
      <stop offset="0.55" stop-color="#52301d"/>
      <stop offset="1" stop-color="#070303"/>
    </linearGradient>
    <linearGradient id="cocktailPhoto" x1="0" y1="0" x2="1" y2="1">
      <stop offset="0" stop-color="#6a2f16"/>
      <stop offset="0.45" stop-color="#2e140d"/>
      <stop offset="1" stop-color="#060202"/>
    </linearGradient>
  </defs>

  <rect width="1600" height="1000" fill="url(#darkBg)"/>
  <g font-family="FK Grotesk, Inter, Helvetica, Arial, sans-serif" fill="#d8d2d2">
    <g transform="translate(36 18)" fill="#ffffff">
      <path d="M16 62 L64 62 L64 74 L52 74 L52 92 L24 92 L24 74 L16 74 Z"/>
      <path d="M31 58 C16 28 56 28 43 6 C67 14 65 44 46 54 C58 48 75 52 80 68 L31 68 Z"/>
      <text x="94" y="30" font-size="23" font-family="Georgia, 'Times New Roman', serif">La</text>
      <text x="94" y="56" font-size="30" font-family="Georgia, 'Times New Roman', serif">Bar Gouttière</text>
    </g>
    <text x="512" y="43" font-size="19" font-weight="700">Accueil</text>
    <text x="648" y="43" font-size="19" font-weight="700">Un brin d'histoire</text>
    <rect x="828" y="16" width="112" height="40" rx="20" fill="none" stroke="#d8d2d2" stroke-width="2"/>
    <text x="856" y="43" font-size="19" font-weight="800" fill="#ffffff">La carte</text>
    <text x="998" y="43" font-size="19" font-weight="700">Galerie</text>
    <text x="1135" y="43" font-size="19" font-weight="700">Actualité</text>
    <text x="1468" y="45" font-size="32" font-weight="300">♡</text>
  </g>

  <text x="800" y="186" text-anchor="middle" fill="#ffffff" font-family="Georgia, 'Times New Roman', serif" font-size="80">La carte</text>
  <rect x="502" y="304" width="596" height="60" rx="7" fill="#2d2d2d"/>
  <text x="530" y="342" fill="#aeb2bb" font-family="FK Grotesk, Inter, Helvetica, Arial, sans-serif" font-size="18" font-weight="700">Search something..</text>
  <circle cx="1074" cy="333" r="8" fill="none" stroke="#85888d" stroke-width="2"/>
  <path d="M1080 339 L1090 349" stroke="#85888d" stroke-width="2" stroke-linecap="round"/>

  <g font-family="Georgia, 'Times New Roman', serif" fill="#ffffff">
    <g transform="translate(112 426)">
      <rect width="678" height="396" rx="7" fill="url(#snackPhoto)"/>
      <rect width="678" height="396" rx="7" fill="#000000" opacity="0.18"/>
      <rect x="32" y="34" width="148" height="6" rx="3" fill="#c70e23"/>
      <ellipse cx="236" cy="178" rx="74" ry="52" fill="#f3e0c1" opacity="0.72"/>
      <rect x="155" y="220" width="286" height="42" rx="3" fill="#d7c6ae" opacity="0.86" transform="rotate(8 155 220)"/>
      <rect x="178" y="258" width="270" height="42" rx="3" fill="#cdb99d" opacity="0.86" transform="rotate(-7 178 258)"/>
      <text x="32" y="124" font-size="70" font-weight="700">Petits encas</text>
    </g>
    <g transform="translate(812 426)">
      <rect width="676" height="396" rx="7" fill="url(#winePhoto)"/>
      <rect width="676" height="396" rx="7" fill="#000000" opacity="0.2"/>
      <rect x="32" y="34" width="148" height="6" rx="3" fill="#c70e23"/>
      <path d="M246 88 C330 126 384 122 444 116" fill="none" stroke="#f1d2a8" stroke-width="16" stroke-linecap="round" opacity="0.7"/>
      <rect x="528" y="84" width="52" height="236" rx="15" fill="#140b08"/>
      <rect x="532" y="214" width="44" height="76" fill="#e6dbc8" opacity="0.75"/>
      <ellipse cx="412" cy="266" rx="42" ry="76" fill="#f1d2a8" opacity="0.36"/>
      <ellipse cx="480" cy="270" rx="42" ry="78" fill="#8f1825" opacity="0.5"/>
      <text x="32" y="124" font-size="70" font-weight="700">Vins</text>
    </g>
    <g transform="translate(112 846)">
      <rect width="678" height="396" rx="7" fill="url(#beerPhoto)"/>
      <rect x="32" y="34" width="148" height="6" rx="3" fill="#c70e23"/>
      <text x="32" y="124" font-size="70" font-weight="700">Bières</text>
    </g>
    <g transform="translate(812 846)">
      <rect width="676" height="396" rx="7" fill="url(#cocktailPhoto)"/>
      <rect x="32" y="34" width="148" height="6" rx="3" fill="#c70e23"/>
      <text x="32" y="124" font-size="70" font-weight="700">Cocktails</text>
    </g>
  </g>
</svg>
