<svg xmlns="http://www.w3.org/2000/svg" width="1600" height="1000" viewBox="0 0 1600 1000" role="img" aria-label="Capture du site La Gouttière">
  <defs>
    <linearGradient id="bg" x1="0" y1="0" x2="1" y2="1">
      <stop offset="0" stop-color="#fffdf7"/>
      <stop offset="0.56" stop-color="#f3efe5"/>
      <stop offset="1" stop-color="#ffffff"/>
    </linearGradient>
    <linearGradient id="menu" x1="0" y1="0" x2="1" y2="1">
      <stop offset="0" stop-color="#171716"/>
      <stop offset="1" stop-color="#4d3a2f"/>
    </linearGradient>
    <filter id="shadow" x="-20%" y="-20%" width="140%" height="150%">
      <feDropShadow dx="0" dy="30" stdDeviation="42" flood-color="#2d261f" flood-opacity="0.15"/>
    </filter>
  </defs>
  <rect width="1600" height="1000" fill="url(#bg)"/>
  <rect x="88" y="72" width="1424" height="856" rx="38" fill="#ffffff" opacity="0.9"/>
  <g font-family="Inter, Helvetica, Arial, sans-serif" fill="#171716">
    <text x="146" y="146" font-size="30" font-weight="800">La Gouttière</text>
    <text x="1010" y="146" font-size="18" font-weight="650">Carte</text>
    <text x="1128" y="146" font-size="18" font-weight="650">Événements</text>
    <text x="1320" y="146" font-size="18" font-weight="650">Contact</text>
    <text x="146" y="348" font-size="78" font-weight="780">La carte du bar,</text>
    <text x="146" y="432" font-size="78" font-weight="780">toujours à jour.</text>
  </g>
  <text x="150" y="518" fill="#73756d" font-family="Inter, Helvetica, Arial, sans-serif" font-size="28">Site vitrine, carte digitale par QR code et espace éditorial</text>
  <text x="150" y="560" fill="#73756d" font-family="Inter, Helvetica, Arial, sans-serif" font-size="28">dans une expérience rapide à consulter sur mobile.</text>
  <g filter="url(#shadow)">
    <rect x="820" y="242" width="500" height="554" rx="38" fill="url(#menu)"/>
    <rect x="870" y="308" width="400" height="70" rx="24" fill="#ffffff" opacity="0.1"/>
    <rect x="870" y="430" width="400" height="82" rx="24" fill="#ffffff" opacity="0.92"/>
    <rect x="908" y="466" width="194" height="16" rx="8" fill="#171716"/>
    <rect x="870" y="544" width="400" height="82" rx="24" fill="#ffffff" opacity="0.92"/>
    <rect x="908" y="580" width="236" height="16" rx="8" fill="#171716"/>
    <rect x="870" y="658" width="400" height="82" rx="24" fill="#ffffff" opacity="0.92"/>
    <rect x="908" y="694" width="168" height="16" rx="8" fill="#171716"/>
    <circle cx="1210" cy="342" r="42" fill="#ee7c42"/>
  </g>
  <g filter="url(#shadow)" font-family="Inter, Helvetica, Arial, sans-serif">
    <rect x="146" y="682" width="250" height="132" rx="28" fill="#ffffff"/>
    <text x="184" y="738" fill="#797970" font-size="18">Carte</text>
    <text x="184" y="790" fill="#151513" font-size="48" font-weight="760">QR</text>
    <rect x="430" y="682" width="250" height="132" rx="28" fill="#ffffff"/>
    <text x="468" y="738" fill="#797970" font-size="18">Éditorial</text>
    <text x="468" y="790" fill="#151513" font-size="48" font-weight="760">CMS</text>
  </g>
</svg>
