<svg xmlns="http://www.w3.org/2000/svg" width="1600" height="1000" viewBox="0 0 1600 1000" role="img" aria-label="Capture du site MM Architectes">
  <defs>
    <linearGradient id="sky" x1="0" y1="0" x2="0" y2="1">
      <stop offset="0" stop-color="#f8faf9"/>
      <stop offset="0.62" stop-color="#edf2ee"/>
      <stop offset="1" stop-color="#ffffff"/>
    </linearGradient>
    <filter id="shadow" x="-20%" y="-20%" width="140%" height="150%">
      <feDropShadow dx="0" dy="28" stdDeviation="42" flood-color="#202824" flood-opacity="0.14"/>
    </filter>
  </defs>
  <rect width="1600" height="1000" fill="url(#sky)"/>
  <rect x="84" y="70" width="1432" height="860" rx="36" fill="#ffffff" opacity="0.88"/>
  <g font-family="Inter, Helvetica, Arial, sans-serif" fill="#151716">
    <text x="136" y="142" font-size="30" font-weight="800">MM ARCHITECTES</text>
    <text x="996" y="142" font-size="18" font-weight="650">Projets</text>
    <text x="1124" y="142" font-size="18" font-weight="650">Atelier</text>
    <text x="1252" y="142" font-size="18" font-weight="650">Approche</text>
    <text x="1390" y="142" font-size="18" font-weight="650">Contact</text>
    <text x="136" y="342" font-size="76" font-weight="760">Architecture sobre,</text>
    <text x="136" y="424" font-size="76" font-weight="760">detaillee, durable.</text>
  </g>
  <text x="140" y="510" fill="#68706b" font-family="Inter, Helvetica, Arial, sans-serif" font-size="27">Portfolio editorial, fiches projets et appels a projets dans une</text>
  <text x="140" y="550" fill="#68706b" font-family="Inter, Helvetica, Arial, sans-serif" font-size="27">experience silencieuse qui laisse respirer les realisations.</text>
  <g filter="url(#shadow)">
    <rect x="772" y="250" width="540" height="560" rx="30" fill="#d8ded7"/>
    <rect x="820" y="304" width="444" height="290" rx="18" fill="#bfc9c1"/>
    <path d="M820 504 L960 394 L1088 506 L1168 430 L1264 504 L1264 594 L820 594 Z" fill="#eef2ef"/>
    <rect x="820" y="642" width="210" height="20" rx="10" fill="#171a18" opacity="0.88"/>
    <rect x="820" y="688" width="330" height="14" rx="7" fill="#7d8780" opacity="0.42"/>
    <rect x="820" y="724" width="256" height="14" rx="7" fill="#7d8780" opacity="0.32"/>
  </g>
  <g filter="url(#shadow)" font-family="Inter, Helvetica, Arial, sans-serif">
    <rect x="136" y="684" width="260" height="132" rx="28" fill="#ffffff"/>
    <text x="174" y="740" fill="#7b837d" font-size="18">Projets publics</text>
    <text x="174" y="790" fill="#171a18" font-size="46" font-weight="760">42</text>
    <rect x="430" y="684" width="260" height="132" rx="28" fill="#ffffff"/>
    <text x="468" y="740" fill="#7b837d" font-size="18">Index visuel</text>
    <text x="468" y="790" fill="#171a18" font-size="46" font-weight="760">A-Z</text>
  </g>
</svg>
