<svg xmlns="http://www.w3.org/2000/svg" width="1600" height="1000" viewBox="0 0 1600 1000" role="img" aria-label="Capture du portfolio MM Architectes">
  <defs>
    <linearGradient id="photoA" x1="0" y1="0" x2="1" y2="1">
      <stop offset="0" stop-color="#eeeeee"/>
      <stop offset="0.45" stop-color="#8d8d8d"/>
      <stop offset="1" stop-color="#1a1a1a"/>
    </linearGradient>
    <linearGradient id="photoB" x1="0" y1="0" x2="1" y2="1">
      <stop offset="0" stop-color="#f4f4f4"/>
      <stop offset="1" stop-color="#444444"/>
    </linearGradient>
    <style>
      .thin { font-family: FK Grotesk, Inter, Helvetica, Arial, sans-serif; font-weight: 300; letter-spacing: 2px; }
      .meta { font-family: FK Grotesk, Inter, Helvetica, Arial, sans-serif; font-weight: 400; letter-spacing: 1px; }
    </style>
  </defs>

  <rect width="1600" height="1000" fill="#ffffff"/>
  <rect y="0" width="1600" height="3" fill="#1d2228"/>

  <g fill="#222222" class="meta">
    <text x="44" y="48" font-size="22">MM ARCHITECTES</text>
    <text x="580" y="48" font-size="15" fill="#858585">STUDIO</text>
    <text x="666" y="48" font-size="15" fill="#858585">SERVICES</text>
    <text x="770" y="48" font-size="15" fill="#858585">EQUIPE</text>
    <text x="860" y="48" font-size="15">PROJETS</text>
    <rect x="860" y="60" width="62" height="1.5" fill="#111111"/>
    <text x="958" y="48" font-size="15" fill="#858585">CONTACT</text>
    <text x="1494" y="48" font-size="13" fill="#888888">FR</text>
    <text x="1522" y="48" font-size="13" fill="#b8b8b8">EN</text>
    <text x="1550" y="48" font-size="13" fill="#b8b8b8">IT</text>
  </g>

  <text x="50" y="166" fill="#000000" class="thin" font-size="78">PROJETS</text>
  <g class="meta" fill="#777777" font-size="14">
    <text x="44" y="248">FILTRES</text>
    <text x="44" y="284" fill="#444444">TOUS</text>
    <rect x="44" y="294" width="34" height="1.5" fill="#111111"/>
    <text x="94" y="284">RESIDENTIEL</text>
    <text x="188" y="284">COMMERCIAL &amp; BUREAUX</text>
    <text x="44" y="322">ESPACES PUBLICS</text>
    <text x="176" y="322">CONCOURS</text>
    <text x="14" y="982" fill="#c1c1c1">04 / 05</text>
  </g>

  <g transform="translate(490 118)">
    <line x1="0" y1="0" x2="0" y2="846" stroke="#111111" stroke-width="1"/>
    <line x1="90" y1="0" x2="90" y2="846" stroke="#111111" stroke-width="1"/>
    <line x1="180" y1="0" x2="180" y2="846" stroke="#111111" stroke-width="1"/>
    <rect x="180" y="0" width="90" height="846" fill="#000000"/>
    <text x="58" y="328" transform="rotate(-90 58 328)" class="thin" font-size="34" fill="#111111">MAISON COTEAU</text>
    <text x="148" y="356" transform="rotate(-90 148 356)" class="thin" font-size="34" fill="#111111">MAISON COMMUNALE</text>
    <text x="238" y="350" transform="rotate(-90 238 350)" class="thin" font-size="34" fill="#ffffff">ATELIER RHONE</text>
    <text x="328" y="404" transform="rotate(-90 328 404)" class="thin" font-size="34" fill="#111111">PAVILLON DES VIGNES</text>
    <text x="58" y="824" transform="rotate(-90 58 824)" class="meta" font-size="13" fill="#777777">[SAVIESE] · 2025 · RESIDENTIEL</text>
    <text x="148" y="824" transform="rotate(-90 148 824)" class="meta" font-size="13" fill="#777777">[SION] · 2024 · ESPACES PUBLICS</text>
    <text x="238" y="824" transform="rotate(-90 238 824)" class="meta" font-size="13" fill="#777777">[SION] · 2023 · COMMERCIAL &amp; BUREAUX</text>
    <text x="328" y="824" transform="rotate(-90 328 824)" class="meta" font-size="13" fill="#777777">[FULLY] · 2021 · CONCOURS</text>
  </g>

  <g class="thin" fill="#111111">
    <text x="870" y="162" font-size="54">ATELIER RHONE</text>
  </g>
  <g class="meta" fill="#777777" font-size="13">
    <text x="872" y="204">LIEU</text>
    <text x="996" y="204">SION</text>
    <text x="1226" y="204">ANNEE</text>
    <text x="1350" y="204">2023</text>
    <text x="872" y="232">TYPE</text>
    <text x="996" y="232">TRANSFORMATION</text>
    <text x="1226" y="232">FILTRES</text>
    <text x="1350" y="232">COMMERCIAL &amp; BUREAUX</text>
  </g>

  <g>
    <rect x="872" y="262" width="454" height="306" fill="url(#photoA)"/>
    <g opacity="0.42" stroke="#111111" stroke-width="5">
      <path d="M924 262 L924 568"/>
      <path d="M1014 262 L1014 568"/>
      <path d="M1108 262 L1108 568"/>
      <path d="M1202 262 L1202 568"/>
      <path d="M872 356 L1326 356"/>
      <path d="M872 454 L1326 454"/>
    </g>
    <path d="M872 472 C1000 412 1162 506 1326 392 L1326 568 L872 568 Z" fill="#ffffff" opacity="0.28"/>
    <rect x="1338" y="262" width="214" height="180" fill="url(#photoB)"/>
    <g opacity="0.44" stroke="#111111" stroke-width="4">
      <path d="M1376 262 L1376 442"/>
      <path d="M1450 262 L1450 442"/>
      <path d="M1520 262 L1520 442"/>
      <path d="M1338 346 L1552 346"/>
    </g>
    <rect x="1338" y="454" width="214" height="180" fill="url(#photoB)"/>
    <rect x="1374" y="516" width="82" height="76" rx="38" fill="#efefef" opacity="0.76"/>
    <rect x="1484" y="488" width="52" height="118" fill="#2e2e2e" opacity="0.64"/>
  </g>

  <g class="meta" fill="#777777" font-size="15">
    <text x="872" y="676">LES INTERVENTIONS RESTENT LISIBLES ET REVERSIBLES. UNE NOUVELLE TRAME TECHNIQUE LIBERE</text>
    <text x="872" y="704">LE PLAN ET REND POSSIBLE PLUSIEURS INTENSITES D'USAGE.</text>
  </g>
</svg>
