<svg xmlns="http://www.w3.org/2000/svg" width="1600" height="1000" viewBox="0 0 1600 1000" role="img" aria-label="Capture de plateforme metier">
  <defs>
    <linearGradient id="bg" x1="0" y1="0" x2="1" y2="1">
      <stop offset="0" stop-color="#f8faf7"/>
      <stop offset="0.48" stop-color="#eef3ec"/>
      <stop offset="1" stop-color="#fff7ec"/>
    </linearGradient>
    <linearGradient id="map" x1="0" y1="0" x2="1" y2="1">
      <stop offset="0" stop-color="#bad9ca"/>
      <stop offset="1" stop-color="#eef1de"/>
    </linearGradient>
    <filter id="shadow" x="-20%" y="-20%" width="140%" height="150%">
      <feDropShadow dx="0" dy="28" stdDeviation="36" flood-color="#1d2723" flood-opacity="0.16"/>
    </filter>
  </defs>
  <rect width="1600" height="1000" fill="url(#bg)"/>
  <rect x="86" y="74" width="1428" height="852" rx="36" fill="#ffffff" opacity="0.9"/>
  <rect x="118" y="112" width="260" height="776" rx="28" fill="#202523"/>
  <g font-family="Inter, Helvetica, Arial, sans-serif">
    <text x="164" y="178" fill="#ffffff" font-size="30" font-weight="760">Atelier Nord</text>
    <text x="164" y="232" fill="#aebbb4" font-size="19">Pilotage operationnel</text>
    <rect x="164" y="300" width="156" height="40" rx="20" fill="#ee7c42"/>
    <text x="190" y="326" fill="#ffffff" font-size="17" font-weight="700">Tableau de bord</text>
    <text x="164" y="404" fill="#aebbb4" font-size="21">Planning</text>
    <text x="164" y="462" fill="#aebbb4" font-size="21">Commandes</text>
    <text x="164" y="520" fill="#aebbb4" font-size="21">Stock</text>
    <text x="164" y="578" fill="#aebbb4" font-size="21">Equipe</text>
  </g>
  <g font-family="Inter, Helvetica, Arial, sans-serif" fill="#151716">
    <text x="438" y="180" font-size="56" font-weight="760">Vue d’ensemble</text>
    <text x="438" y="224" font-size="22" fill="#747d77">Production, commandes et capacite en temps reel.</text>
  </g>
  <g filter="url(#shadow)">
    <rect x="438" y="292" width="280" height="164" rx="26" fill="#f4f7f4"/>
    <text x="478" y="350" fill="#6c756f" font-family="Inter, Helvetica, Arial, sans-serif" font-size="19">Commandes ouvertes</text>
    <text x="478" y="412" fill="#181a19" font-family="Inter, Helvetica, Arial, sans-serif" font-size="62" font-weight="760">248</text>
    <rect x="754" y="292" width="280" height="164" rx="26" fill="#f4f7f4"/>
    <text x="794" y="350" fill="#6c756f" font-family="Inter, Helvetica, Arial, sans-serif" font-size="19">Delai moyen</text>
    <text x="794" y="412" fill="#181a19" font-family="Inter, Helvetica, Arial, sans-serif" font-size="62" font-weight="760">3.2 j</text>
    <rect x="1070" y="292" width="280" height="164" rx="26" fill="#f4f7f4"/>
    <text x="1110" y="350" fill="#6c756f" font-family="Inter, Helvetica, Arial, sans-serif" font-size="19">Capacite</text>
    <text x="1110" y="412" fill="#181a19" font-family="Inter, Helvetica, Arial, sans-serif" font-size="62" font-weight="760">87%</text>
  </g>
  <g filter="url(#shadow)">
    <rect x="438" y="522" width="552" height="282" rx="30" fill="url(#map)"/>
    <path d="M488 710 C600 602 704 768 814 616 C882 524 920 604 952 576" fill="none" stroke="#ffffff" stroke-width="18" stroke-linecap="round" opacity="0.72"/>
    <circle cx="620" cy="644" r="18" fill="#ee7c42"/>
    <circle cx="824" cy="614" r="18" fill="#ee7c42"/>
    <circle cx="902" cy="592" r="18" fill="#ee7c42"/>
    <rect x="1040" y="522" width="310" height="282" rx="30" fill="#202523"/>
    <text x="1082" y="586" fill="#ffffff" font-family="Inter, Helvetica, Arial, sans-serif" font-size="27" font-weight="760">Priorites</text>
    <rect x="1082" y="636" width="214" height="16" rx="8" fill="#ffffff" opacity="0.72"/>
    <rect x="1082" y="682" width="172" height="16" rx="8" fill="#ffffff" opacity="0.46"/>
    <rect x="1082" y="728" width="228" height="16" rx="8" fill="#ee7c42"/>
  </g>
</svg>
