<svg xmlns="http://www.w3.org/2000/svg" width="1170" height="2532" viewBox="0 0 1170 2532" role="img" aria-label="Interface mobile Pop-up">
  <defs>
    <linearGradient id="bg" x1="0" y1="0" x2="1" y2="1">
      <stop offset="0" stop-color="#f5fbff"/>
      <stop offset="0.5" stop-color="#e6f5ee"/>
      <stop offset="1" stop-color="#fff8e8"/>
    </linearGradient>
    <linearGradient id="trail" x1="0" y1="0" x2="1" y2="1">
      <stop offset="0" stop-color="#a8d4c8"/>
      <stop offset="1" stop-color="#f4cd87"/>
    </linearGradient>
    <filter id="shadow" x="-20%" y="-20%" width="140%" height="150%">
      <feDropShadow dx="0" dy="34" stdDeviation="44" flood-color="#1d2b25" flood-opacity="0.18"/>
    </filter>
  </defs>
  <rect width="1170" height="2532" fill="url(#bg)"/>
  <g font-family="Inter, Helvetica, Arial, sans-serif">
    <text x="80" y="172" fill="#171917" font-size="48" font-weight="780">Pop-up</text>
    <rect x="858" y="120" width="212" height="72" rx="36" fill="#ffffff" opacity="0.84"/>
    <text x="910" y="166" fill="#171917" font-size="25" font-weight="720">Quest</text>
    <text x="80" y="360" fill="#171917" font-size="82" font-weight="780">Scannez.</text>
    <text x="80" y="452" fill="#171917" font-size="82" font-weight="780">Avancez.</text>
    <text x="84" y="532" fill="#68737d" font-size="32">Des randonnees transformees en</text>
    <text x="84" y="578" fill="#68737d" font-size="32">quetes avec recompenses reelles.</text>
  </g>
  <g filter="url(#shadow)">
    <rect x="96" y="714" width="978" height="982" rx="62" fill="url(#trail)"/>
    <path d="M162 1378 C318 1212 482 1456 650 1214 C766 1046 854 1148 974 952" fill="none" stroke="#ffffff" stroke-width="34" stroke-linecap="round" opacity="0.78"/>
    <circle cx="320" cy="1246" r="40" fill="#ee7c42"/>
    <circle cx="650" cy="1214" r="40" fill="#ee7c42"/>
    <circle cx="902" cy="1040" r="40" fill="#ee7c42"/>
    <rect x="172" y="814" width="392" height="78" rx="39" fill="#ffffff" opacity="0.78"/>
    <rect x="172" y="932" width="278" height="32" rx="16" fill="#1f2c27" opacity="0.54"/>
  </g>
  <g font-family="Inter, Helvetica, Arial, sans-serif" filter="url(#shadow)">
    <rect x="96" y="1810" width="978" height="430" rx="58" fill="#ffffff"/>
    <text x="156" y="1908" fill="#748079" font-size="30" font-weight="650">Challenge actif</text>
    <text x="156" y="1994" fill="#171917" font-size="54" font-weight="780">Le sentier secret</text>
    <rect x="156" y="2072" width="660" height="22" rx="11" fill="#dfe8e3"/>
    <rect x="156" y="2072" width="430" height="22" rx="11" fill="#ee7c42"/>
    <rect x="156" y="2148" width="250" height="76" rx="38" fill="#171917"/>
    <text x="220" y="2196" fill="#ffffff" font-size="28" font-weight="760">Scanner</text>
  </g>
</svg>
