<svg xmlns="http://www.w3.org/2000/svg" width="1600" height="1000" viewBox="0 0 1600 1000" role="img" aria-label="Capture de logiciel SaaS">
  <defs>
    <linearGradient id="bg" x1="0" y1="0" x2="1" y2="1">
      <stop offset="0" stop-color="#f7f5ff"/>
      <stop offset="0.5" stop-color="#eff5ff"/>
      <stop offset="1" stop-color="#fff6ec"/>
    </linearGradient>
    <linearGradient id="panel" x1="0" y1="0" x2="1" y2="1">
      <stop offset="0" stop-color="#ffffff"/>
      <stop offset="1" stop-color="#f2f3f7"/>
    </linearGradient>
    <filter id="shadow" x="-20%" y="-20%" width="140%" height="150%">
      <feDropShadow dx="0" dy="26" stdDeviation="38" flood-color="#22223a" flood-opacity="0.15"/>
    </filter>
  </defs>
  <rect width="1600" height="1000" fill="url(#bg)"/>
  <rect x="82" y="74" width="1436" height="852" rx="38" fill="#ffffff" opacity="0.8"/>
  <g font-family="Inter, Helvetica, Arial, sans-serif">
    <text x="142" y="152" fill="#17181b" font-size="29" font-weight="780">NOVA OPS</text>
    <text x="1220" y="152" fill="#626876" font-size="18" font-weight="650">Rapports</text>
    <text x="1348" y="152" fill="#626876" font-size="18" font-weight="650">Equipe</text>
    <text x="142" y="290" fill="#17181b" font-size="70" font-weight="780">Le pilotage SaaS</text>
    <text x="142" y="368" fill="#17181b" font-size="70" font-weight="780">pour les operations.</text>
    <text x="146" y="430" fill="#69707d" font-size="25">Suivez vos ventes, vos tickets et vos objectifs dans une</text>
    <text x="146" y="468" fill="#69707d" font-size="25">interface rapide, lisible et concue pour la croissance.</text>
  </g>
  <g filter="url(#shadow)">
    <rect x="742" y="246" width="624" height="528" rx="36" fill="#1d2027"/>
    <rect x="790" y="304" width="180" height="420" rx="26" fill="#2c3039"/>
    <rect x="1010" y="304" width="308" height="184" rx="26" fill="url(#panel)"/>
    <rect x="1010" y="530" width="308" height="194" rx="26" fill="url(#panel)"/>
    <rect x="832" y="360" width="94" height="12" rx="6" fill="#ffffff" opacity="0.72"/>
    <rect x="832" y="418" width="96" height="12" rx="6" fill="#ffffff" opacity="0.42"/>
    <rect x="832" y="476" width="76" height="12" rx="6" fill="#ee7c42"/>
    <rect x="1054" y="360" width="126" height="18" rx="9" fill="#21242c"/>
    <rect x="1054" y="412" width="218" height="14" rx="7" fill="#8b92a2" opacity="0.35"/>
    <rect x="1054" y="590" width="206" height="14" rx="7" fill="#8b92a2" opacity="0.35"/>
    <rect x="1054" y="636" width="156" height="14" rx="7" fill="#8b92a2" opacity="0.35"/>
    <path d="M1054 692 C1104 646 1134 662 1178 612 C1228 556 1264 604 1292 570" fill="none" stroke="#ee7c42" stroke-width="12" stroke-linecap="round"/>
  </g>
  <g font-family="Inter, Helvetica, Arial, sans-serif" filter="url(#shadow)">
    <rect x="142" y="584" width="190" height="120" rx="28" fill="#ffffff"/>
    <text x="178" y="638" fill="#747b87" font-size="17">MRR</text>
    <text x="178" y="682" fill="#17181b" font-size="44" font-weight="780">+18%</text>
    <rect x="368" y="584" width="190" height="120" rx="28" fill="#ffffff"/>
    <text x="404" y="638" fill="#747b87" font-size="17">Tickets</text>
    <text x="404" y="682" fill="#17181b" font-size="44" font-weight="780">94</text>
  </g>
</svg>
